<?xml version="1.0" encoding="UTF-8"?>
<svg xmlns="http://www.w3.org/2000/svg" xmlns:xlink="http://www.w3.org/1999/xlink" width="98" height="200" viewBox="0 0 98 200">
<path fill-rule="evenodd" fill="rgb(0%, 0%, 0%)" fill-opacity="1" d="M 20.359375 196.148438 C 20.359375 192.148438 14.359375 192.148438 14.359375 196.148438 C 14.359375 200.148438 20.359375 200.148438 20.359375 196.148438 Z M 20.359375 196.148438 "/>
<path fill-rule="evenodd" fill="rgb(0%, 0%, 0%)" fill-opacity="1" d="M 52.359375 196.03125 C 52.359375 192.03125 46.359375 192.03125 46.359375 196.03125 C 46.359375 200.03125 52.359375 200.03125 52.359375 196.03125 Z M 52.359375 196.03125 "/>
<path fill-rule="evenodd" fill="rgb(0%, 0%, 0%)" fill-opacity="1" d="M 84.359375 195.910156 C 84.359375 191.910156 78.359375 191.910156 78.359375 195.910156 C 78.359375 199.910156 84.359375 199.910156 84.359375 195.910156 Z M 84.359375 195.910156 "/>
<path fill-rule="evenodd" fill="rgb(0%, 0%, 0%)" fill-opacity="1" d="M 19.640625 4.148438 C 19.640625 0.148438 13.640625 0.148438 13.640625 4.148438 C 13.640625 8.148438 19.640625 8.148438 19.640625 4.148438 Z M 19.640625 4.148438 "/>
<path fill-rule="evenodd" fill="rgb(0%, 0%, 0%)" fill-opacity="1" d="M 51.640625 4.03125 C 51.640625 0.03125 45.640625 0.03125 45.640625 4.03125 C 45.640625 8.03125 51.640625 8.03125 51.640625 4.03125 Z M 51.640625 4.03125 "/>
<path fill-rule="evenodd" fill="rgb(0%, 0%, 0%)" fill-opacity="1" d="M 83.636719 3.910156 C 83.636719 -0.0898438 77.636719 -0.0898438 77.636719 3.910156 C 77.636719 7.910156 83.636719 7.910156 83.636719 3.910156 Z M 83.636719 3.910156 "/>
<path fill="none" stroke-width="1.2" stroke-linecap="butt" stroke-linejoin="round" stroke="rgb(0%, 0%, 0%)" stroke-opacity="1" stroke-miterlimit="10" d="M 280.359375 567.96875 L 280.238281 599.96875 " transform="matrix(1, 0, 0, -1, -231, 764)"/>
<path fill="none" stroke-width="1.2" stroke-linecap="butt" stroke-linejoin="round" stroke="rgb(0%, 0%, 0%)" stroke-opacity="1" stroke-miterlimit="10" d="M 312.359375 568.089844 L 312 664.089844 " transform="matrix(1, 0, 0, -1, -231, 764)"/>
<path fill="none" stroke-width="1.2" stroke-linecap="butt" stroke-linejoin="round" stroke="rgb(0%, 0%, 0%)" stroke-opacity="1" stroke-miterlimit="10" d="M 279.761719 727.96875 L 279.640625 759.96875 " transform="matrix(1, 0, 0, -1, -231, 764)"/>
<path fill="none" stroke-width="1.2" stroke-linecap="butt" stroke-linejoin="round" stroke="rgb(0%, 0%, 0%)" stroke-opacity="1" stroke-miterlimit="10" d="M 279.761719 727.96875 L 247.882812 695.851562 " transform="matrix(1, 0, 0, -1, -231, 764)"/>
<path fill="none" stroke-width="1.2" stroke-linecap="butt" stroke-linejoin="round" stroke="rgb(0%, 0%, 0%)" stroke-opacity="1" stroke-miterlimit="10" d="M 280.238281 599.96875 L 267.019531 613.09375 " transform="matrix(1, 0, 0, -1, -231, 764)"/>
<path fill="none" stroke-width="1.2" stroke-linecap="butt" stroke-linejoin="round" stroke="rgb(0%, 0%, 0%)" stroke-opacity="1" stroke-miterlimit="10" d="M 261.339844 618.726562 L 248.121094 631.851562 " transform="matrix(1, 0, 0, -1, -231, 764)"/>
<path fill="none" stroke-width="1.2" stroke-linecap="butt" stroke-linejoin="round" stroke="rgb(0%, 0%, 0%)" stroke-opacity="1" stroke-miterlimit="10" d="M 312 664.089844 L 298.777344 677.210938 " transform="matrix(1, 0, 0, -1, -231, 764)"/>
<path fill="none" stroke-width="1.2" stroke-linecap="butt" stroke-linejoin="round" stroke="rgb(0%, 0%, 0%)" stroke-opacity="1" stroke-miterlimit="10" d="M 293.101562 682.847656 L 279.882812 695.96875 " transform="matrix(1, 0, 0, -1, -231, 764)"/>
<path fill="none" stroke-width="1.2" stroke-linecap="butt" stroke-linejoin="round" stroke="rgb(0%, 0%, 0%)" stroke-opacity="1" stroke-miterlimit="10" d="M 279.882812 695.96875 L 266.660156 709.09375 " transform="matrix(1, 0, 0, -1, -231, 764)"/>
<path fill="none" stroke-width="1.2" stroke-linecap="butt" stroke-linejoin="round" stroke="rgb(0%, 0%, 0%)" stroke-opacity="1" stroke-miterlimit="10" d="M 260.984375 714.726562 L 247.761719 727.851562 " transform="matrix(1, 0, 0, -1, -231, 764)"/>
<path fill="none" stroke-width="1.2" stroke-linecap="butt" stroke-linejoin="round" stroke="rgb(0%, 0%, 0%)" stroke-opacity="1" stroke-miterlimit="10" d="M 247.761719 727.851562 L 247.640625 759.851562 " transform="matrix(1, 0, 0, -1, -231, 764)"/>
<path fill="none" stroke-width="1.2" stroke-linecap="butt" stroke-linejoin="round" stroke="rgb(0%, 0%, 0%)" stroke-opacity="1" stroke-miterlimit="10" d="M 311.640625 760.089844 L 311.882812 696.089844 L 280 663.96875 " transform="matrix(1, 0, 0, -1, -231, 764)"/>
<path fill="none" stroke-width="1.2" stroke-linecap="butt" stroke-linejoin="round" stroke="rgb(0%, 0%, 0%)" stroke-opacity="1" stroke-miterlimit="10" d="M 248.359375 567.851562 L 248.238281 599.851562 L 280.121094 631.96875 " transform="matrix(1, 0, 0, -1, -231, 764)"/>
<path fill="none" stroke-width="1.2" stroke-linecap="butt" stroke-linejoin="round" stroke="rgb(0%, 0%, 0%)" stroke-opacity="1" stroke-miterlimit="10" d="M 247.882812 695.851562 L 248 663.851562 " transform="matrix(1, 0, 0, -1, -231, 764)"/>
<path fill="none" stroke-width="1.2" stroke-linecap="butt" stroke-linejoin="round" stroke="rgb(0%, 0%, 0%)" stroke-opacity="1" stroke-miterlimit="10" d="M 248.121094 631.851562 L 280 663.96875 " transform="matrix(1, 0, 0, -1, -231, 764)"/>
<path fill="none" stroke-width="1.2" stroke-linecap="butt" stroke-linejoin="round" stroke="rgb(0%, 0%, 0%)" stroke-opacity="1" stroke-miterlimit="10" d="M 248 663.851562 L 261.222656 650.726562 " transform="matrix(1, 0, 0, -1, -231, 764)"/>
<path fill="none" stroke-width="1.2" stroke-linecap="butt" stroke-linejoin="round" stroke="rgb(0%, 0%, 0%)" stroke-opacity="1" stroke-miterlimit="10" d="M 266.898438 645.09375 L 280.121094 631.96875 " transform="matrix(1, 0, 0, -1, -231, 764)"/>
<path fill="none" stroke-width="1.2" stroke-linecap="butt" stroke-linejoin="round" stroke="rgb(0%, 0%, 0%)" stroke-opacity="1" stroke-dasharray="1 3" stroke-miterlimit="10" d="M 232.359375 567.792969 L 328.359375 568.148438 " transform="matrix(1, 0, 0, -1, -231, 764)"/>
<path fill="none" stroke-width="1.2" stroke-linecap="butt" stroke-linejoin="round" stroke="rgb(0%, 0%, 0%)" stroke-opacity="1" stroke-dasharray="1 3" stroke-miterlimit="10" d="M 231.644531 759.789062 L 327.640625 760.148438 " transform="matrix(1, 0, 0, -1, -231, 764)"/>
</svg>
