<?xml version="1.0" standalone="no"?>
<!DOCTYPE svg PUBLIC "-//W3C//DTD SVG 20010904//EN"
 "http://www.w3.org/TR/2001/REC-SVG-20010904/DTD/svg10.dtd">
<svg version="1.0" xmlns="http://www.w3.org/2000/svg"
 width="162.000000pt" height="328.000000pt" viewBox="0 0 162.000000 328.000000"
 preserveAspectRatio="xMidYMid meet">
<metadata>
Created by potrace 1.16, written by Peter Selinger 2001-2019
</metadata>
<g transform="translate(0.000000,328.000000) scale(0.100000,-0.100000)"
fill="#000000" stroke="none">
<path d="M143 3254 c-3 -9 -1 -25 5 -35 9 -13 12 -108 12 -316 l0 -298 160
-160 160 -160 0 -320 0 -321 72 -69 73 -70 -63 65 -62 66 0 319 0 320 -160
160 -160 160 0 304 c0 268 2 307 16 323 14 14 14 20 4 33 -16 20 -49 19 -57
-1z"/>
<path d="M463 3254 c-3 -9 -1 -25 5 -35 9 -13 12 -109 12 -321 l0 -302 -62
-66 -63 -65 73 70 72 69 0 300 c0 263 2 302 16 318 14 14 14 20 4 33 -16 20
-49 19 -57 -1z"/>
<path d="M783 3254 c-3 -9 -1 -25 5 -35 9 -14 12 -147 12 -476 l0 -458 232
-230 233 -230 -223 225 -222 225 0 464 c0 416 2 466 16 483 14 14 14 20 4 33
-16 20 -49 19 -57 -1z"/>
<path d="M1103 3254 c-3 -9 -1 -25 5 -35 8 -12 12 -70 12 -157 l0 -138 72 -69
73 -70 -63 65 -62 66 0 143 c0 120 3 148 16 163 14 14 14 20 4 33 -16 20 -49
19 -57 -1z"/>
<path d="M1423 3254 c-3 -9 -1 -25 5 -35 8 -12 12 -71 12 -161 l0 -143 -160
-160 -160 -160 0 -160 0 -159 -62 -66 -63 -65 73 70 72 69 0 161 0 160 160
160 160 160 0 139 c0 115 3 143 16 158 14 14 14 20 4 33 -16 20 -49 19 -57 -1z"/>
<path d="M1378 2670 l62 -66 0 -324 0 -325 -160 -160 -160 -160 0 -155 0 -156
72 -69 73 -70 -63 65 -62 66 0 164 0 165 160 160 160 160 0 315 0 316 -72 69
-73 70 63 -65z"/>
<path d="M227 2342 l-67 -68 0 -634 0 -635 160 -160 160 -160 0 -303 c0 -212
-3 -308 -12 -321 -24 -39 22 -72 52 -36 10 13 10 19 -4 33 -14 16 -16 55 -16
318 l0 299 -160 160 -160 160 0 645 0 644 62 63 c34 35 60 63 57 63 -2 0 -35
-30 -72 -68z"/>
<path d="M867 2022 l-67 -68 0 -159 0 -160 -160 -160 -160 -160 0 -160 0 -159
-62 -66 -63 -65 73 70 72 69 0 161 0 160 160 160 160 160 0 160 0 159 62 63
c34 35 60 63 57 63 -2 0 -35 -30 -72 -68z"/>
<path d="M1378 1710 l62 -66 0 -164 0 -165 -160 -160 -160 -160 0 -160 0 -159
-62 -66 -63 -65 73 70 72 69 0 161 0 160 160 160 160 160 0 155 0 156 -72 69
-73 70 63 -65z"/>
<path d="M738 1390 l62 -66 0 -319 0 -320 160 -160 160 -160 0 -143 c0 -90 -4
-149 -12 -161 -24 -39 22 -72 52 -36 10 13 10 19 -4 33 -13 15 -16 43 -16 158
l0 139 -160 160 -160 160 0 320 0 321 -72 69 -73 70 63 -65z"/>
<path d="M1378 1070 l62 -66 0 -462 c0 -333 -3 -467 -12 -481 -24 -39 22 -72
52 -36 10 13 10 19 -4 33 -14 17 -16 66 -16 478 l0 460 -72 69 -73 70 63 -65z"/>
<path d="M227 742 l-67 -68 0 -297 c0 -208 -3 -303 -12 -316 -24 -39 22 -72
52 -36 10 13 10 19 -4 33 -14 16 -16 55 -16 323 l0 303 62 63 c34 35 60 63 57
63 -2 0 -35 -30 -72 -68z"/>
<path d="M867 422 l-67 -68 0 -137 c0 -87 -4 -144 -12 -156 -24 -39 22 -72 52
-36 10 13 10 19 -4 33 -13 15 -16 43 -16 163 l0 143 62 63 c34 35 60 63 57 63
-2 0 -35 -30 -72 -68z"/>
</g>
</svg>
