<?xml version="1.0" encoding="UTF-8"?>
<svg xmlns="http://www.w3.org/2000/svg" xmlns:xlink="http://www.w3.org/1999/xlink" width="211" height="211" viewBox="0 0 211 211">
<path fill-rule="evenodd" fill="rgb(100%, 0%, 0%)" fill-opacity="1" stroke-width="2" stroke-linecap="butt" stroke-linejoin="round" stroke="rgb(100%, 0%, 0%)" stroke-opacity="1" stroke-miterlimit="10" d="M 144 752 L 144 720 L 176 720 L 176 752 Z M 144 752 " transform="matrix(1, 0, 0, -1, -79, 817)"/>
<path fill-rule="evenodd" fill="rgb(100%, 0%, 0%)" fill-opacity="1" stroke-width="2" stroke-linecap="butt" stroke-linejoin="round" stroke="rgb(100%, 0%, 0%)" stroke-opacity="1" stroke-miterlimit="10" d="M 144 816 L 144 784 L 176 784 L 176 816 Z M 144 816 " transform="matrix(1, 0, 0, -1, -79, 817)"/>
<path fill-rule="evenodd" fill="rgb(100%, 0%, 0%)" fill-opacity="1" stroke-width="2" stroke-linecap="butt" stroke-linejoin="round" stroke="rgb(100%, 0%, 0%)" stroke-opacity="1" stroke-miterlimit="10" d="M 80 752 L 80 720 L 112 720 L 112 752 Z M 80 752 " transform="matrix(1, 0, 0, -1, -79, 817)"/>
<path fill-rule="evenodd" fill="rgb(0%, 100%, 0%)" fill-opacity="1" stroke-width="2" stroke-linecap="butt" stroke-linejoin="round" stroke="rgb(0%, 100%, 0%)" stroke-opacity="1" stroke-miterlimit="10" d="M 192 816 L 192 784 L 224 784 L 224 816 Z M 192 816 " transform="matrix(1, 0, 0, -1, -79, 817)"/>
<path fill-rule="evenodd" fill="rgb(0%, 100%, 0%)" fill-opacity="1" stroke-width="2" stroke-linecap="butt" stroke-linejoin="round" stroke="rgb(0%, 100%, 0%)" stroke-opacity="1" stroke-miterlimit="10" d="M 192 704 L 192 672 L 224 672 L 224 704 Z M 192 704 " transform="matrix(1, 0, 0, -1, -79, 817)"/>
<path fill-rule="evenodd" fill="rgb(0%, 100%, 0%)" fill-opacity="1" stroke-width="2" stroke-linecap="butt" stroke-linejoin="round" stroke="rgb(0%, 100%, 0%)" stroke-opacity="1" stroke-miterlimit="10" d="M 80 704 L 80 672 L 112 672 L 112 704 Z M 80 704 " transform="matrix(1, 0, 0, -1, -79, 817)"/>
<path fill-rule="evenodd" fill="rgb(0%, 100%, 0%)" fill-opacity="1" stroke-width="2" stroke-linecap="butt" stroke-linejoin="round" stroke="rgb(0%, 100%, 0%)" stroke-opacity="1" stroke-miterlimit="10" d="M 240 752 L 240 720 L 272 720 L 272 752 Z M 240 752 " transform="matrix(1, 0, 0, -1, -79, 817)"/>
<path fill-rule="evenodd" fill="rgb(0%, 100%, 0%)" fill-opacity="1" stroke-width="2" stroke-linecap="butt" stroke-linejoin="round" stroke="rgb(0%, 100%, 0%)" stroke-opacity="1" stroke-miterlimit="10" d="M 144 656 L 144 624 L 176 624 L 176 656 Z M 144 656 " transform="matrix(1, 0, 0, -1, -79, 817)"/>
<path fill-rule="evenodd" fill="rgb(100%, 0%, 0%)" fill-opacity="1" stroke-width="2" stroke-linecap="butt" stroke-linejoin="round" stroke="rgb(100%, 0%, 0%)" stroke-opacity="1" stroke-miterlimit="10" d="M 240 704 L 240 672 L 272 672 L 272 704 Z M 240 704 " transform="matrix(1, 0, 0, -1, -79, 817)"/>
<path fill-rule="evenodd" fill="rgb(100%, 0%, 0%)" fill-opacity="1" stroke-width="2" stroke-linecap="butt" stroke-linejoin="round" stroke="rgb(100%, 0%, 0%)" stroke-opacity="1" stroke-miterlimit="10" d="M 192 656 L 192 624 L 224 624 L 224 656 Z M 192 656 " transform="matrix(1, 0, 0, -1, -79, 817)"/>
<path fill-rule="evenodd" fill="rgb(0%, 0%, 100%)" fill-opacity="1" stroke-width="2" stroke-linecap="butt" stroke-linejoin="round" stroke="rgb(0%, 0%, 100%)" stroke-opacity="1" stroke-miterlimit="10" d="M 144 704 L 144 672 L 176 672 L 176 704 Z M 144 704 " transform="matrix(1, 0, 0, -1, -79, 817)"/>
<path fill-rule="evenodd" fill="rgb(0%, 0%, 100%)" fill-opacity="1" stroke-width="2" stroke-linecap="butt" stroke-linejoin="round" stroke="rgb(0%, 0%, 100%)" stroke-opacity="1" stroke-miterlimit="10" d="M 192 752 L 192 720 L 224 720 L 224 752 Z M 192 752 " transform="matrix(1, 0, 0, -1, -79, 817)"/>
<path fill-rule="evenodd" fill="rgb(0%, 0%, 100%)" fill-opacity="1" stroke-width="2" stroke-linecap="butt" stroke-linejoin="round" stroke="rgb(0%, 0%, 100%)" stroke-opacity="1" stroke-miterlimit="10" d="M 240 816 L 240 784 L 272 784 L 272 816 Z M 240 816 " transform="matrix(1, 0, 0, -1, -79, 817)"/>
<path fill-rule="evenodd" fill="rgb(0%, 0%, 100%)" fill-opacity="1" stroke-width="2" stroke-linecap="butt" stroke-linejoin="round" stroke="rgb(0%, 0%, 100%)" stroke-opacity="1" stroke-miterlimit="10" d="M 240 656 L 240 624 L 272 624 L 272 656 Z M 240 656 " transform="matrix(1, 0, 0, -1, -79, 817)"/>
<path fill-rule="evenodd" fill="rgb(0%, 0%, 100%)" fill-opacity="1" stroke-width="2" stroke-linecap="butt" stroke-linejoin="round" stroke="rgb(0%, 0%, 100%)" stroke-opacity="1" stroke-miterlimit="10" d="M 80 656 L 80 624 L 112 624 L 112 656 Z M 80 656 " transform="matrix(1, 0, 0, -1, -79, 817)"/>
<path fill="none" stroke-width="2" stroke-linecap="butt" stroke-linejoin="round" stroke="rgb(0%, 0%, 0%)" stroke-opacity="1" stroke-miterlimit="10" d="M 288 768 L 128 768 L 128 608 " transform="matrix(1, 0, 0, -1, -79, 817)"/>
</svg>
