<?xml version="1.0" encoding="UTF-8"?>
<svg xmlns="http://www.w3.org/2000/svg" xmlns:xlink="http://www.w3.org/1999/xlink" width="259" height="147" viewBox="0 0 259 147">
<path fill-rule="evenodd" fill="rgb(0%, 0%, 0%)" fill-opacity="1" d="M 37 34 C 37 30 31 30 31 34 C 31 38 37 38 37 34 Z M 37 34 "/>
<path fill-rule="evenodd" fill="rgb(0%, 0%, 0%)" fill-opacity="1" d="M 37 66 C 37 62 31 62 31 66 C 31 70 37 70 37 66 Z M 37 66 "/>
<path fill-rule="evenodd" fill="rgb(0%, 0%, 0%)" fill-opacity="1" d="M 37 98 C 37 94 31 94 31 98 C 31 102 37 102 37 98 Z M 37 98 "/>
<path fill-rule="evenodd" fill="rgb(0%, 0%, 0%)" fill-opacity="1" d="M 229 34 C 229 30 223 30 223 34 C 223 38 229 38 229 34 Z M 229 34 "/>
<path fill-rule="evenodd" fill="rgb(0%, 0%, 0%)" fill-opacity="1" d="M 229 66 C 229 62 223 62 223 66 C 223 70 229 70 229 66 Z M 229 66 "/>
<path fill-rule="evenodd" fill="rgb(0%, 0%, 0%)" fill-opacity="1" d="M 229 98 C 229 94 223 94 223 98 C 223 102 229 102 229 98 Z M 229 98 "/>
<path fill="none" stroke-width="1.2" stroke-linecap="butt" stroke-linejoin="round" stroke="rgb(0%, 0%, 0%)" stroke-opacity="1" stroke-miterlimit="10" d="M 192 736 L 224 736 " transform="matrix(1, 0, 0, -1, -158, 802)"/>
<path fill="none" stroke-width="1.2" stroke-linecap="butt" stroke-linejoin="round" stroke="rgb(0%, 0%, 0%)" stroke-opacity="1" stroke-miterlimit="10" d="M 192 704 L 288 704 " transform="matrix(1, 0, 0, -1, -158, 802)"/>
<path fill="none" stroke-width="1.2" stroke-linecap="butt" stroke-linejoin="round" stroke="rgb(0%, 0%, 0%)" stroke-opacity="1" stroke-miterlimit="10" d="M 352 736 L 384 736 " transform="matrix(1, 0, 0, -1, -158, 802)"/>
<path fill="none" stroke-width="1.2" stroke-linecap="butt" stroke-linejoin="round" stroke="rgb(0%, 0%, 0%)" stroke-opacity="1" stroke-miterlimit="10" d="M 352 736 L 320 768 " transform="matrix(1, 0, 0, -1, -158, 802)"/>
<path fill="none" stroke-width="1.2" stroke-linecap="butt" stroke-linejoin="round" stroke="rgb(0%, 0%, 0%)" stroke-opacity="1" stroke-miterlimit="10" d="M 224 736 L 237.171875 749.171875 " transform="matrix(1, 0, 0, -1, -158, 802)"/>
<path fill="none" stroke-width="1.2" stroke-linecap="butt" stroke-linejoin="round" stroke="rgb(0%, 0%, 0%)" stroke-opacity="1" stroke-miterlimit="10" d="M 242.828125 754.828125 L 256 768 " transform="matrix(1, 0, 0, -1, -158, 802)"/>
<path fill="none" stroke-width="1.2" stroke-linecap="butt" stroke-linejoin="round" stroke="rgb(0%, 0%, 0%)" stroke-opacity="1" stroke-miterlimit="10" d="M 288 704 L 301.171875 717.171875 " transform="matrix(1, 0, 0, -1, -158, 802)"/>
<path fill="none" stroke-width="1.2" stroke-linecap="butt" stroke-linejoin="round" stroke="rgb(0%, 0%, 0%)" stroke-opacity="1" stroke-miterlimit="10" d="M 306.828125 722.828125 L 320 736 " transform="matrix(1, 0, 0, -1, -158, 802)"/>
<path fill="none" stroke-width="1.2" stroke-linecap="butt" stroke-linejoin="round" stroke="rgb(0%, 0%, 0%)" stroke-opacity="1" stroke-miterlimit="10" d="M 320 736 L 333.171875 749.171875 " transform="matrix(1, 0, 0, -1, -158, 802)"/>
<path fill="none" stroke-width="1.2" stroke-linecap="butt" stroke-linejoin="round" stroke="rgb(0%, 0%, 0%)" stroke-opacity="1" stroke-miterlimit="10" d="M 338.828125 754.828125 L 352 768 " transform="matrix(1, 0, 0, -1, -158, 802)"/>
<path fill="none" stroke-width="1.2" stroke-linecap="butt" stroke-linejoin="round" stroke="rgb(0%, 0%, 0%)" stroke-opacity="1" stroke-miterlimit="10" d="M 352 768 L 384 768 " transform="matrix(1, 0, 0, -1, -158, 802)"/>
<path fill="none" stroke-width="1.2" stroke-linecap="butt" stroke-linejoin="round" stroke="rgb(0%, 0%, 0%)" stroke-opacity="1" stroke-miterlimit="10" d="M 384 704 L 320 704 L 288 736 " transform="matrix(1, 0, 0, -1, -158, 802)"/>
<path fill="none" stroke-width="1.2" stroke-linecap="butt" stroke-linejoin="round" stroke="rgb(0%, 0%, 0%)" stroke-opacity="1" stroke-miterlimit="10" d="M 192 768 L 224 768 L 256 736 " transform="matrix(1, 0, 0, -1, -158, 802)"/>
<path fill="none" stroke-width="1.2" stroke-linecap="butt" stroke-linejoin="round" stroke="rgb(0%, 0%, 0%)" stroke-opacity="1" stroke-miterlimit="10" d="M 320 768 L 288 768 " transform="matrix(1, 0, 0, -1, -158, 802)"/>
<path fill="none" stroke-width="1.2" stroke-linecap="butt" stroke-linejoin="round" stroke="rgb(0%, 0%, 0%)" stroke-opacity="1" stroke-miterlimit="10" d="M 256 768 L 288 736 " transform="matrix(1, 0, 0, -1, -158, 802)"/>
<path fill="none" stroke-width="1.2" stroke-linecap="butt" stroke-linejoin="round" stroke="rgb(0%, 0%, 0%)" stroke-opacity="1" stroke-miterlimit="10" d="M 288 768 L 274.828125 754.828125 " transform="matrix(1, 0, 0, -1, -158, 802)"/>
<path fill="none" stroke-width="1.2" stroke-linecap="butt" stroke-linejoin="round" stroke="rgb(0%, 0%, 0%)" stroke-opacity="1" stroke-miterlimit="10" d="M 269.171875 749.171875 L 256 736 " transform="matrix(1, 0, 0, -1, -158, 802)"/>
<path fill="none" stroke-width="1.2" stroke-linecap="butt" stroke-linejoin="round" stroke="rgb(0%, 0%, 0%)" stroke-opacity="1" stroke-dasharray="1 3" stroke-miterlimit="10" d="M 192 784 L 192 688 " transform="matrix(1, 0, 0, -1, -158, 802)"/>
<path fill="none" stroke-width="1.2" stroke-linecap="butt" stroke-linejoin="round" stroke="rgb(0%, 0%, 0%)" stroke-opacity="1" stroke-dasharray="1 3" stroke-miterlimit="10" d="M 384 784 L 384 688 " transform="matrix(1, 0, 0, -1, -158, 802)"/>
<path fill="none" stroke-width="1.2" stroke-linecap="butt" stroke-linejoin="round" stroke="rgb(100%, 54.9%, 0%)" stroke-opacity="1" stroke-miterlimit="10" d="M 384 704 C 400 704 400 696 400 689.332031 C 400 682.667969 400 677.332031 397.332031 674.667969 C 394.667969 672 389.332031 672 354.667969 672 C 320 672 256 672 221.332031 672 C 186.667969 672 181.332031 672 178.667969 674.667969 C 176 677.332031 176 682.667969 176 689.332031 C 176 696 176 704 192 704 " transform="matrix(1, 0, 0, -1, -158, 802)"/>
<path fill="none" stroke-width="1.2" stroke-linecap="butt" stroke-linejoin="round" stroke="rgb(100%, 54.9%, 0%)" stroke-opacity="1" stroke-miterlimit="10" d="M 384 768 C 400 768 400 776 400 782.667969 C 400 789.332031 400 794.667969 397.332031 797.332031 C 394.667969 800 389.332031 800 354.667969 800 C 320 800 256 800 221.332031 800 C 186.667969 800 181.332031 800 178.667969 797.332031 C 176 794.667969 176 789.332031 176 782.667969 C 176 776 176 768 192 768 " transform="matrix(1, 0, 0, -1, -158, 802)"/>
<path fill="none" stroke-width="1.2" stroke-linecap="butt" stroke-linejoin="round" stroke="rgb(100%, 54.9%, 0%)" stroke-opacity="1" stroke-miterlimit="10" d="M 384 736 C 416 736 416 716 416 699.332031 C 416 682.667969 416 669.332031 410.667969 662.667969 C 405.332031 656 394.667969 656 357.332031 656 C 320 656 256 656 218.667969 656 C 181.332031 656 170.667969 656 165.332031 662.667969 C 160 669.332031 160 682.667969 160 699.332031 C 160 716 160 736 192 736 " transform="matrix(1, 0, 0, -1, -158, 802)"/>
</svg>
