<?xml version="1.0" encoding="UTF-8"?>
<svg xmlns="http://www.w3.org/2000/svg" xmlns:xlink="http://www.w3.org/1999/xlink" width="147" height="259" viewBox="0 0 147 259">
<path fill-rule="evenodd" fill="rgb(0%, 0%, 0%)" fill-opacity="1" d="M 37.359375 226.148438 C 37.359375 222.148438 31.359375 222.148438 31.359375 226.148438 C 31.359375 230.148438 37.359375 230.148438 37.359375 226.148438 Z M 37.359375 226.148438 "/>
<path fill-rule="evenodd" fill="rgb(0%, 0%, 0%)" fill-opacity="1" d="M 69.359375 226.027344 C 69.359375 222.027344 63.359375 222.027344 63.359375 226.027344 C 63.359375 230.027344 69.359375 230.027344 69.359375 226.027344 Z M 69.359375 226.027344 "/>
<path fill-rule="evenodd" fill="rgb(0%, 0%, 0%)" fill-opacity="1" d="M 101.359375 225.910156 C 101.359375 221.910156 95.359375 221.910156 95.359375 225.910156 C 95.359375 229.910156 101.359375 229.910156 101.359375 225.910156 Z M 101.359375 225.910156 "/>
<path fill-rule="evenodd" fill="rgb(0%, 0%, 0%)" fill-opacity="1" d="M 36.640625 34.148438 C 36.640625 30.148438 30.640625 30.148438 30.640625 34.148438 C 30.640625 38.148438 36.640625 38.148438 36.640625 34.148438 Z M 36.640625 34.148438 "/>
<path fill-rule="evenodd" fill="rgb(0%, 0%, 0%)" fill-opacity="1" d="M 68.640625 34.03125 C 68.640625 30.03125 62.640625 30.03125 62.640625 34.03125 C 62.640625 38.03125 68.640625 38.03125 68.640625 34.03125 Z M 68.640625 34.03125 "/>
<path fill-rule="evenodd" fill="rgb(0%, 0%, 0%)" fill-opacity="1" d="M 100.640625 33.910156 C 100.640625 29.910156 94.640625 29.910156 94.640625 33.910156 C 94.640625 37.910156 100.640625 37.910156 100.640625 33.910156 Z M 100.640625 33.910156 "/>
<path fill="none" stroke-width="1.2" stroke-linecap="butt" stroke-linejoin="round" stroke="rgb(0%, 0%, 0%)" stroke-opacity="1" stroke-miterlimit="10" d="M 280.359375 567.972656 L 280.238281 599.96875 " transform="matrix(1, 0, 0, -1, -214, 794)"/>
<path fill="none" stroke-width="1.2" stroke-linecap="butt" stroke-linejoin="round" stroke="rgb(0%, 0%, 0%)" stroke-opacity="1" stroke-miterlimit="10" d="M 312.359375 568.089844 L 312 664.089844 " transform="matrix(1, 0, 0, -1, -214, 794)"/>
<path fill="none" stroke-width="1.2" stroke-linecap="butt" stroke-linejoin="round" stroke="rgb(0%, 0%, 0%)" stroke-opacity="1" stroke-miterlimit="10" d="M 279.761719 727.96875 L 279.640625 759.96875 " transform="matrix(1, 0, 0, -1, -214, 794)"/>
<path fill="none" stroke-width="1.2" stroke-linecap="butt" stroke-linejoin="round" stroke="rgb(0%, 0%, 0%)" stroke-opacity="1" stroke-miterlimit="10" d="M 279.761719 727.96875 L 247.882812 695.851562 " transform="matrix(1, 0, 0, -1, -214, 794)"/>
<path fill="none" stroke-width="1.2" stroke-linecap="butt" stroke-linejoin="round" stroke="rgb(0%, 0%, 0%)" stroke-opacity="1" stroke-miterlimit="10" d="M 280.238281 599.96875 L 267.019531 613.09375 " transform="matrix(1, 0, 0, -1, -214, 794)"/>
<path fill="none" stroke-width="1.2" stroke-linecap="butt" stroke-linejoin="round" stroke="rgb(0%, 0%, 0%)" stroke-opacity="1" stroke-miterlimit="10" d="M 261.339844 618.726562 L 248.121094 631.851562 " transform="matrix(1, 0, 0, -1, -214, 794)"/>
<path fill="none" stroke-width="1.2" stroke-linecap="butt" stroke-linejoin="round" stroke="rgb(0%, 0%, 0%)" stroke-opacity="1" stroke-miterlimit="10" d="M 312 664.089844 L 298.777344 677.210938 " transform="matrix(1, 0, 0, -1, -214, 794)"/>
<path fill="none" stroke-width="1.2" stroke-linecap="butt" stroke-linejoin="round" stroke="rgb(0%, 0%, 0%)" stroke-opacity="1" stroke-miterlimit="10" d="M 293.101562 682.847656 L 279.878906 695.96875 " transform="matrix(1, 0, 0, -1, -214, 794)"/>
<path fill="none" stroke-width="1.2" stroke-linecap="butt" stroke-linejoin="round" stroke="rgb(0%, 0%, 0%)" stroke-opacity="1" stroke-miterlimit="10" d="M 279.878906 695.96875 L 266.660156 709.09375 " transform="matrix(1, 0, 0, -1, -214, 794)"/>
<path fill="none" stroke-width="1.2" stroke-linecap="butt" stroke-linejoin="round" stroke="rgb(0%, 0%, 0%)" stroke-opacity="1" stroke-miterlimit="10" d="M 260.984375 714.726562 L 247.761719 727.851562 " transform="matrix(1, 0, 0, -1, -214, 794)"/>
<path fill="none" stroke-width="1.2" stroke-linecap="butt" stroke-linejoin="round" stroke="rgb(0%, 0%, 0%)" stroke-opacity="1" stroke-miterlimit="10" d="M 247.761719 727.851562 L 247.640625 759.851562 " transform="matrix(1, 0, 0, -1, -214, 794)"/>
<path fill="none" stroke-width="1.2" stroke-linecap="butt" stroke-linejoin="round" stroke="rgb(0%, 0%, 0%)" stroke-opacity="1" stroke-miterlimit="10" d="M 311.640625 760.089844 L 311.878906 696.089844 L 280 663.96875 " transform="matrix(1, 0, 0, -1, -214, 794)"/>
<path fill="none" stroke-width="1.2" stroke-linecap="butt" stroke-linejoin="round" stroke="rgb(0%, 0%, 0%)" stroke-opacity="1" stroke-miterlimit="10" d="M 248.359375 567.851562 L 248.238281 599.851562 L 280.121094 631.96875 " transform="matrix(1, 0, 0, -1, -214, 794)"/>
<path fill="none" stroke-width="1.2" stroke-linecap="butt" stroke-linejoin="round" stroke="rgb(0%, 0%, 0%)" stroke-opacity="1" stroke-miterlimit="10" d="M 247.882812 695.851562 L 248 663.851562 " transform="matrix(1, 0, 0, -1, -214, 794)"/>
<path fill="none" stroke-width="1.2" stroke-linecap="butt" stroke-linejoin="round" stroke="rgb(0%, 0%, 0%)" stroke-opacity="1" stroke-miterlimit="10" d="M 248.121094 631.851562 L 280 663.96875 " transform="matrix(1, 0, 0, -1, -214, 794)"/>
<path fill="none" stroke-width="1.2" stroke-linecap="butt" stroke-linejoin="round" stroke="rgb(0%, 0%, 0%)" stroke-opacity="1" stroke-miterlimit="10" d="M 248 663.851562 L 261.222656 650.726562 " transform="matrix(1, 0, 0, -1, -214, 794)"/>
<path fill="none" stroke-width="1.2" stroke-linecap="butt" stroke-linejoin="round" stroke="rgb(0%, 0%, 0%)" stroke-opacity="1" stroke-miterlimit="10" d="M 266.898438 645.09375 L 280.121094 631.96875 " transform="matrix(1, 0, 0, -1, -214, 794)"/>
<path fill="none" stroke-width="1.2" stroke-linecap="butt" stroke-linejoin="round" stroke="rgb(0%, 0%, 0%)" stroke-opacity="1" stroke-dasharray="1 3" stroke-miterlimit="10" d="M 232.359375 567.792969 L 328.359375 568.148438 " transform="matrix(1, 0, 0, -1, -214, 794)"/>
<path fill="none" stroke-width="1.2" stroke-linecap="butt" stroke-linejoin="round" stroke="rgb(0%, 0%, 0%)" stroke-opacity="1" stroke-dasharray="1 3" stroke-miterlimit="10" d="M 231.640625 759.789062 L 327.640625 760.148438 " transform="matrix(1, 0, 0, -1, -214, 794)"/>
<path fill="none" stroke-width="1.2" stroke-linecap="butt" stroke-linejoin="round" stroke="rgb(100%, 54.9%, 0%)" stroke-opacity="1" stroke-miterlimit="10" d="M 311.640625 760.089844 C 311.582031 776.089844 319.582031 776.117188 326.25 776.144531 C 332.914062 776.167969 338.25 776.1875 340.925781 773.53125 C 343.601562 770.875 343.621094 765.542969 343.75 730.875 C 343.878906 696.207031 344.117188 632.210938 344.25 597.542969 C 344.378906 562.875 344.398438 557.542969 341.742188 554.867188 C 339.085938 552.191406 333.75 552.171875 327.085938 552.144531 C 320.417969 552.121094 312.417969 552.089844 312.359375 568.089844 " transform="matrix(1, 0, 0, -1, -214, 794)"/>
<path fill="none" stroke-width="1.2" stroke-linecap="butt" stroke-linejoin="round" stroke="rgb(100%, 54.9%, 0%)" stroke-opacity="1" stroke-miterlimit="10" d="M 247.640625 759.851562 C 247.582031 775.851562 239.582031 775.820312 232.914062 775.796875 C 226.25 775.769531 220.914062 775.75 218.257812 773.074219 C 215.601562 770.398438 215.621094 765.0625 215.75 730.398438 C 215.882812 695.730469 216.121094 631.730469 216.25 597.066406 C 216.378906 562.398438 216.398438 557.066406 219.074219 554.410156 C 221.75 551.753906 227.085938 551.773438 233.75 551.796875 C 240.417969 551.820312 248.417969 551.851562 248.359375 567.851562 " transform="matrix(1, 0, 0, -1, -214, 794)"/>
<path fill="none" stroke-width="1.2" stroke-linecap="butt" stroke-linejoin="round" stroke="rgb(100%, 54.9%, 0%)" stroke-opacity="1" stroke-miterlimit="10" d="M 279.640625 759.96875 C 279.523438 791.96875 299.523438 792.042969 316.1875 792.105469 C 332.855469 792.167969 346.1875 792.21875 352.875 786.910156 C 359.5625 781.601562 359.601562 770.933594 359.742188 733.601562 C 359.878906 696.269531 360.117188 632.269531 360.257812 594.9375 C 360.398438 557.601562 360.4375 546.9375 353.789062 541.578125 C 347.144531 536.21875 333.8125 536.171875 317.144531 536.109375 C 300.476562 536.046875 280.476562 535.972656 280.359375 567.972656 " transform="matrix(1, 0, 0, -1, -214, 794)"/>
</svg>
