<?xml version="1.0" encoding="UTF-8"?>
<svg xmlns="http://www.w3.org/2000/svg" xmlns:xlink="http://www.w3.org/1999/xlink" width="343" height="184" viewBox="0 0 343 184">
<path fill="none" stroke-width="1.2" stroke-linecap="butt" stroke-linejoin="round" stroke="rgb(0%, 100%, 0%)" stroke-opacity="1" stroke-miterlimit="10" d="M 144 720.53125 L 188.019531 720.109375 " transform="matrix(1, 0, 0, -1, -60, 804)"/>
<path fill="none" stroke-width="1.2" stroke-linecap="butt" stroke-linejoin="round" stroke="rgb(0%, 100%, 0%)" stroke-opacity="1" stroke-miterlimit="10" d="M 144 692.820312 L 186.582031 692.761719 " transform="matrix(1, 0, 0, -1, -60, 804)"/>
<path fill="none" stroke-width="1.2" stroke-linecap="butt" stroke-linejoin="round" stroke="rgb(0%, 0%, 100%)" stroke-opacity="1" stroke-miterlimit="10" d="M 320 720.53125 L 196.574219 720.136719 " transform="matrix(1, 0, 0, -1, -60, 804)"/>
<path fill="none" stroke-width="1.2" stroke-linecap="butt" stroke-linejoin="round" stroke="rgb(0%, 0%, 100%)" stroke-opacity="1" stroke-miterlimit="10" d="M 320 692.820312 L 196.296875 692.863281 " transform="matrix(1, 0, 0, -1, -60, 804)"/>
<path fill="none" stroke-width="1.2" stroke-linecap="butt" stroke-linejoin="round" stroke="rgb(0%, 100%, 0%)" stroke-opacity="1" stroke-miterlimit="10" d="M 273.085938 717.046875 C 274.816406 710.195312 274.804688 703.019531 273.050781 696.171875 " transform="matrix(1, 0, 0, -1, -60, 804)"/>
<path fill="none" stroke-width="1.2" stroke-linecap="butt" stroke-linejoin="round" stroke="rgb(100%, 0%, 0%)" stroke-opacity="1" stroke-miterlimit="10" d="M 240.179688 784.484375 C 239.476562 794.179688 231.625 801.808594 221.914062 802.230469 " transform="matrix(1, 0, 0, -1, -60, 804)"/>
<path fill="none" stroke-width="1.2" stroke-linecap="butt" stroke-linejoin="round" stroke="rgb(100%, 0%, 0%)" stroke-opacity="1" stroke-miterlimit="10" d="M 225.507812 782.824219 C 225.65625 785.175781 223.941406 787.230469 221.601562 787.507812 " transform="matrix(1, 0, 0, -1, -60, 804)"/>
<path fill="none" stroke-width="1.2" stroke-linecap="butt" stroke-linejoin="round" stroke="rgb(100%, 0%, 0%)" stroke-opacity="1" stroke-miterlimit="10" d="M 116.128906 801.621094 C 106.480469 802.785156 97.488281 796.539062 95.214844 787.089844 " transform="matrix(1, 0, 0, -1, -60, 804)"/>
<path fill="none" stroke-width="1.2" stroke-linecap="butt" stroke-linejoin="round" stroke="rgb(100%, 0%, 0%)" stroke-opacity="1" stroke-miterlimit="10" d="M 114.953125 786.902344 C 112.671875 787.496094 110.324219 786.207031 109.605469 783.960938 " transform="matrix(1, 0, 0, -1, -60, 804)"/>
<path fill="none" stroke-width="1.2" stroke-linecap="butt" stroke-linejoin="round" stroke="rgb(0%, 0%, 100%)" stroke-opacity="1" stroke-miterlimit="10" d="M 95.363281 641.480469 C 94.304688 631.820312 100.652344 622.898438 110.128906 620.730469 " transform="matrix(1, 0, 0, -1, -60, 804)"/>
<path fill="none" stroke-width="1.2" stroke-linecap="butt" stroke-linejoin="round" stroke="rgb(0%, 0%, 100%)" stroke-opacity="1" stroke-miterlimit="10" d="M 110.089844 640.46875 C 109.523438 638.183594 110.839844 635.847656 113.09375 635.15625 " transform="matrix(1, 0, 0, -1, -60, 804)"/>
<path fill="none" stroke-width="1.2" stroke-linecap="butt" stroke-linejoin="round" stroke="rgb(0%, 0%, 100%)" stroke-opacity="1" stroke-miterlimit="10" d="M 351.09375 622.75 C 360.800781 623.246094 368.597656 630.933594 369.230469 640.632812 " transform="matrix(1, 0, 0, -1, -60, 804)"/>
<path fill="none" stroke-width="1.2" stroke-linecap="butt" stroke-linejoin="round" stroke="rgb(0%, 0%, 100%)" stroke-opacity="1" stroke-miterlimit="10" d="M 349.75 637.453125 C 352.097656 637.253906 354.191406 638.925781 354.515625 641.261719 " transform="matrix(1, 0, 0, -1, -60, 804)"/>
<path fill="none" stroke-width="1.2" stroke-linecap="butt" stroke-linejoin="round" stroke="rgb(0%, 0%, 100%)" stroke-opacity="1" stroke-miterlimit="10" d="M 349.75 637.453125 L 113.09375 635.15625 " transform="matrix(1, 0, 0, -1, -60, 804)"/>
<path fill="none" stroke-width="1.2" stroke-linecap="butt" stroke-linejoin="round" stroke="rgb(0%, 0%, 100%)" stroke-opacity="1" stroke-miterlimit="10" d="M 110.128906 620.730469 L 351.09375 622.75 " transform="matrix(1, 0, 0, -1, -60, 804)"/>
<path fill="none" stroke-width="1.2" stroke-linecap="butt" stroke-linejoin="round" stroke="rgb(100%, 0%, 0%)" stroke-opacity="1" stroke-miterlimit="10" d="M 221.914062 802.230469 L 116.132812 801.621094 " transform="matrix(1, 0, 0, -1, -60, 804)"/>
<path fill="none" stroke-width="1.2" stroke-linecap="butt" stroke-linejoin="round" stroke="rgb(100%, 0%, 0%)" stroke-opacity="1" stroke-miterlimit="10" d="M 221.601562 787.507812 L 114.953125 786.902344 " transform="matrix(1, 0, 0, -1, -60, 804)"/>
<path fill="none" stroke-width="1.2" stroke-linecap="butt" stroke-linejoin="round" stroke="rgb(100%, 0%, 0%)" stroke-opacity="1" stroke-miterlimit="10" d="M 270.457031 688.980469 C 264.296875 675.597656 251.621094 666.378906 236.992188 664.640625 C 222.363281 662.902344 207.878906 668.898438 198.757812 680.46875 C 189.636719 692.035156 187.183594 707.515625 192.289062 721.339844 C 197.390625 735.160156 209.3125 745.332031 223.765625 748.199219 " transform="matrix(1, 0, 0, -1, -60, 804)"/>
<path fill="none" stroke-width="1.2" stroke-linecap="butt" stroke-linejoin="round" stroke="rgb(100%, 0%, 0%)" stroke-opacity="1" stroke-miterlimit="10" d="M 239.550781 748.332031 C 253.367188 745.824219 265.039062 736.636719 270.714844 723.792969 " transform="matrix(1, 0, 0, -1, -60, 804)"/>
<path fill="none" stroke-width="1.2" stroke-linecap="butt" stroke-linejoin="round" stroke="rgb(100%, 0%, 0%)" stroke-opacity="1" stroke-miterlimit="10" d="M 223.765625 748.199219 L 225.511719 782.824219 " transform="matrix(1, 0, 0, -1, -60, 804)"/>
<path fill="none" stroke-width="1.2" stroke-linecap="butt" stroke-linejoin="round" stroke="rgb(100%, 0%, 0%)" stroke-opacity="1" stroke-miterlimit="10" d="M 239.550781 748.328125 L 240.179688 784.484375 " transform="matrix(1, 0, 0, -1, -60, 804)"/>
<path fill="none" stroke-width="1.2" stroke-linecap="butt" stroke-linejoin="round" stroke="rgb(100%, 0%, 0%)" stroke-opacity="1" stroke-miterlimit="10" d="M 95.214844 787.089844 L 95.484375 753 " transform="matrix(1, 0, 0, -1, -60, 804)"/>
<path fill="none" stroke-width="1.2" stroke-linecap="butt" stroke-linejoin="round" stroke="rgb(100%, 0%, 0%)" stroke-opacity="1" stroke-miterlimit="10" d="M 109.605469 783.960938 L 109.324219 753.828125 " transform="matrix(1, 0, 0, -1, -60, 804)"/>
<path fill="none" stroke-width="1.2" stroke-linecap="butt" stroke-linejoin="round" stroke="rgb(0%, 0%, 100%)" stroke-opacity="1" stroke-miterlimit="10" d="M 109.421875 744.203125 L 110.089844 640.46875 " transform="matrix(1, 0, 0, -1, -60, 804)"/>
<path fill="none" stroke-width="1.2" stroke-linecap="butt" stroke-linejoin="round" stroke="rgb(0%, 0%, 100%)" stroke-opacity="1" stroke-miterlimit="10" d="M 95.363281 641.480469 L 95.988281 743.878906 " transform="matrix(1, 0, 0, -1, -60, 804)"/>
<path fill="none" stroke-width="1.2" stroke-linecap="butt" stroke-linejoin="round" stroke="rgb(0%, 100%, 0%)" stroke-opacity="1" stroke-miterlimit="10" d="M 144 692.820312 C 139.183594 678.917969 127.496094 668.515625 113.132812 665.34375 " transform="matrix(1, 0, 0, -1, -60, 804)"/>
<path fill="none" stroke-width="1.2" stroke-linecap="butt" stroke-linejoin="round" stroke="rgb(100%, 0%, 0%)" stroke-opacity="1" stroke-miterlimit="10" d="M 107.3125 664.476562 C 104.324219 664.238281 101.316406 664.324219 98.34375 664.726562 " transform="matrix(1, 0, 0, -1, -60, 804)"/>
<path fill="none" stroke-width="1.2" stroke-linecap="butt" stroke-linejoin="round" stroke="rgb(0%, 100%, 0%)" stroke-opacity="1" stroke-miterlimit="10" d="M 92.25 666.007812 C 78.050781 670.109375 67.019531 681.320312 63.148438 695.585938 C 59.273438 709.847656 63.121094 725.097656 73.296875 735.820312 C 83.46875 746.539062 98.5 751.175781 112.945312 748.054688 C 127.390625 744.929688 139.164062 734.5 144 720.53125 " transform="matrix(1, 0, 0, -1, -60, 804)"/>
<path fill="none" stroke-width="1.2" stroke-linecap="butt" stroke-linejoin="round" stroke="rgb(0%, 0%, 100%)" stroke-opacity="1" stroke-miterlimit="10" d="M 320 720.53125 C 324.921875 734.746094 337.015625 745.277344 351.769531 748.203125 C 366.523438 751.125 381.722656 746 391.691406 734.742188 C 401.664062 723.480469 404.910156 707.773438 400.222656 693.484375 C 395.535156 679.191406 383.617188 668.460938 368.914062 665.292969 " transform="matrix(1, 0, 0, -1, -60, 804)"/>
<path fill="none" stroke-width="1.2" stroke-linecap="butt" stroke-linejoin="round" stroke="rgb(0%, 0%, 100%)" stroke-opacity="1" stroke-miterlimit="10" d="M 354.441406 664.710938 C 338.570312 666.8125 325.242188 677.691406 320 692.820312 " transform="matrix(1, 0, 0, -1, -60, 804)"/>
<path fill="none" stroke-width="1.2" stroke-linecap="butt" stroke-linejoin="round" stroke="rgb(0%, 0%, 100%)" stroke-opacity="1" stroke-miterlimit="10" d="M 354.515625 641.261719 L 354.441406 664.710938 " transform="matrix(1, 0, 0, -1, -60, 804)"/>
<path fill="none" stroke-width="1.2" stroke-linecap="butt" stroke-linejoin="round" stroke="rgb(0%, 0%, 100%)" stroke-opacity="1" stroke-miterlimit="10" d="M 369.230469 640.632812 L 368.914062 665.292969 " transform="matrix(1, 0, 0, -1, -60, 804)"/>
<path fill="none" stroke-width="1.2" stroke-linecap="butt" stroke-linejoin="round" stroke="rgb(100%, 0%, 0%)" stroke-opacity="1" stroke-miterlimit="10" d="M 247.941406 745.894531 C 253.976562 743.441406 259.363281 739.628906 263.683594 734.75 " transform="matrix(1, 0, 0, -1, -60, 804)"/>
<path fill-rule="evenodd" fill="rgb(100%, 0%, 0%)" fill-opacity="1" stroke-width="1.2" stroke-linecap="butt" stroke-linejoin="round" stroke="rgb(100%, 0%, 0%)" stroke-opacity="1" stroke-miterlimit="10" d="M 263.683594 734.753906 L 260.785156 741.535156 L 257.296875 738.445312 Z M 263.683594 734.753906 " transform="matrix(1, 0, 0, -1, -60, 804)"/>
<path fill="none" stroke-width="1.2" stroke-linecap="butt" stroke-linejoin="round" stroke="rgb(0%, 0%, 100%)" stroke-opacity="1" stroke-miterlimit="10" d="M 381.183594 743.328125 C 386.699219 740.140625 391.425781 735.746094 395.007812 730.480469 " transform="matrix(1, 0, 0, -1, -60, 804)"/>
<path fill-rule="evenodd" fill="rgb(0%, 0%, 100%)" fill-opacity="1" stroke-width="1.2" stroke-linecap="butt" stroke-linejoin="round" stroke="rgb(0%, 0%, 100%)" stroke-opacity="1" stroke-miterlimit="10" d="M 395.007812 730.480469 L 392.996094 737.578125 L 389.140625 734.957031 Z M 395.007812 730.480469 " transform="matrix(1, 0, 0, -1, -60, 804)"/>
<path fill="none" stroke-width="1.2" stroke-linecap="butt" stroke-linejoin="round" stroke="rgb(0%, 100%, 0%)" stroke-opacity="1" stroke-miterlimit="10" d="M 127.414062 741.945312 C 131.730469 739.078125 135.488281 735.441406 138.492188 731.21875 " transform="matrix(1, 0, 0, -1, -60, 804)"/>
<path fill-rule="evenodd" fill="rgb(0%, 100%, 0%)" fill-opacity="1" stroke-width="1.2" stroke-linecap="butt" stroke-linejoin="round" stroke="rgb(0%, 100%, 0%)" stroke-opacity="1" stroke-miterlimit="10" d="M 138.492188 731.21875 L 136.335938 738.273438 L 132.535156 735.570312 Z M 138.492188 731.21875 " transform="matrix(1, 0, 0, -1, -60, 804)"/>
</svg>
