<?xml version="1.0" encoding="UTF-8"?>
<svg xmlns="http://www.w3.org/2000/svg" xmlns:xlink="http://www.w3.org/1999/xlink" width="154" height="124" viewBox="0 0 154 124">
<path fill="none" stroke-width="1.2" stroke-linecap="butt" stroke-linejoin="round" stroke="rgb(0%, 0%, 0%)" stroke-opacity="1" stroke-miterlimit="10" d="M 256 704 C 304 736 320 712 322.667969 694.667969 C 325.332031 677.332031 314.667969 666.667969 301.332031 669.332031 C 288 672 272 688 256 704 " transform="matrix(1, 0, 0, -1, -170, 721)"/>
<path fill="none" stroke-width="1.2" stroke-linecap="butt" stroke-linejoin="round" stroke="rgb(0%, 0%, 0%)" stroke-opacity="1" stroke-miterlimit="10" d="M 256 704 C 240 720 228 720 215.332031 717.332031 C 202.667969 714.667969 189.332031 709.332031 181.332031 701.332031 C 173.332031 693.332031 170.667969 682.667969 172 672 C 173.332031 661.332031 178.667969 650.667969 186.667969 641.332031 C 194.667969 632 205.332031 624 214.667969 622 C 224 620 232 624 240 632 " transform="matrix(1, 0, 0, -1, -170, 721)"/>
<path fill="none" stroke-width="1.2" stroke-linecap="butt" stroke-linejoin="round" stroke="rgb(0%, 0%, 0%)" stroke-opacity="1" stroke-miterlimit="10" d="M 248 640 C 256 648 256 656 252 662.667969 C 248 669.332031 240 674.667969 230.667969 676 C 221.332031 677.332031 210.667969 674.667969 205.332031 669.332031 C 200 664 200 656 192 640 " transform="matrix(1, 0, 0, -1, -170, 721)"/>
<path fill="none" stroke-width="1.2" stroke-linecap="butt" stroke-linejoin="round" stroke="rgb(0%, 0%, 0%)" stroke-opacity="1" stroke-miterlimit="10" d="M 188 632 C 180 624 180 618 184 612.332031 C 188 606.667969 196 601.332031 204 599.332031 C 212 597.332031 220 598.667969 228 600.667969 C 236 602.667969 244 605.332031 248.667969 609.332031 C 253.332031 613.332031 254.667969 618.667969 253.332031 623.332031 C 252 628 248 632 244 637 C 240 642 236 648 232 672 " transform="matrix(1, 0, 0, -1, -170, 721)"/>
<path fill="none" stroke-width="1.2" stroke-linecap="butt" stroke-linejoin="round" stroke="rgb(0%, 0%, 0%)" stroke-opacity="1" stroke-miterlimit="10" d="M 232 680 C 232 688 236 696 256 704 " transform="matrix(1, 0, 0, -1, -170, 721)"/>
<path fill-rule="evenodd" fill="rgb(0%, 0%, 0%)" fill-opacity="1" d="M 89 17 C 89 13 83 13 83 17 C 83 21 89 21 89 17 Z M 89 17 "/>
</svg>
