<?xml version="1.0" encoding="UTF-8"?>
<svg xmlns="http://www.w3.org/2000/svg" xmlns:xlink="http://www.w3.org/1999/xlink" width="182" height="141" viewBox="0 0 182 141">
<path fill="none" stroke-width="2" stroke-linecap="butt" stroke-linejoin="round" stroke="rgb(0%, 0%, 0%)" stroke-opacity="1" stroke-miterlimit="10" d="M 398 595.824219 L 374 632.777344 " transform="matrix(1, 0, 0, -1, -283, 680)"/>
<path fill="none" stroke-width="2" stroke-linecap="butt" stroke-linejoin="round" stroke="rgb(0%, 0%, 0%)" stroke-opacity="1" stroke-miterlimit="10" d="M 368 623.539062 L 344 586.585938 " transform="matrix(1, 0, 0, -1, -283, 680)"/>
<path fill="none" stroke-width="2" stroke-linecap="butt" stroke-linejoin="round" stroke="rgb(0%, 0%, 0%)" stroke-opacity="1" stroke-miterlimit="10" d="M 356 586.585938 L 404 586.585938 " transform="matrix(1, 0, 0, -1, -283, 680)"/>
<path fill="none" stroke-width="2" stroke-linecap="butt" stroke-linejoin="round" stroke="rgb(0%, 0%, 0%)" stroke-opacity="1" stroke-miterlimit="10" d="M 404 586.585938 L 464 586.585938 L 404 678.964844 L 380 642.011719 " transform="matrix(1, 0, 0, -1, -283, 680)"/>
<path fill="none" stroke-width="2" stroke-linecap="butt" stroke-linejoin="round" stroke="rgb(0%, 0%, 0%)" stroke-opacity="1" stroke-miterlimit="10" d="M 374 632.777344 L 344 678.964844 L 284 586.585938 " transform="matrix(1, 0, 0, -1, -283, 680)"/>
<path fill="none" stroke-width="2" stroke-linecap="butt" stroke-linejoin="round" stroke="rgb(0%, 0%, 0%)" stroke-opacity="1" stroke-miterlimit="10" d="M 332 586.585938 L 284 586.585938 " transform="matrix(1, 0, 0, -1, -283, 680)"/>
<path fill="none" stroke-width="2" stroke-linecap="butt" stroke-linejoin="round" stroke="rgb(0%, 0%, 0%)" stroke-opacity="1" stroke-miterlimit="10" d="M 344 586.585938 L 314 540.398438 L 434 540.398438 L 410 577.351562 " transform="matrix(1, 0, 0, -1, -283, 680)"/>
</svg>
