<?xml version="1.0" encoding="UTF-8"?>
<svg xmlns="http://www.w3.org/2000/svg" xmlns:xlink="http://www.w3.org/1999/xlink" width="190" height="101" viewBox="0 0 190 101">
<path fill="none" stroke-width="2" stroke-linecap="butt" stroke-linejoin="round" stroke="rgb(0%, 0%, 0%)" stroke-opacity="1" stroke-miterlimit="10" d="M 208 672 C 224 704 248 704 260 698.667969 C 272 693.332031 272 682.667969 269.332031 674.667969 C 266.667969 666.667969 261.332031 661.332031 254.667969 662.667969 C 248 664 240 672 256 688 " transform="matrix(1, 0, 0, -1, -202, 736)"/>
<path fill="none" stroke-width="2" stroke-linecap="butt" stroke-linejoin="round" stroke="rgb(0%, 0%, 0%)" stroke-opacity="1" stroke-miterlimit="10" d="M 267.75 700.359375 C 278.417969 716.359375 294.417969 716.359375 302.417969 713.691406 C 310.417969 711.027344 310.417969 705.691406 308.640625 701.691406 C 306.863281 697.691406 303.308594 695.027344 298.863281 695.691406 C 294.417969 696.359375 289.085938 700.359375 299.75 708.359375 " transform="matrix(1, 0, 0, -1, -202, 736)"/>
<path fill="none" stroke-width="2" stroke-linecap="butt" stroke-linejoin="round" stroke="rgb(0%, 0%, 0%)" stroke-opacity="1" stroke-miterlimit="10" d="M 309.683594 716.246094 C 314.691406 725.074219 322.199219 725.074219 325.957031 723.605469 C 329.710938 722.132812 329.710938 719.191406 328.875 716.980469 C 328.042969 714.773438 326.371094 713.304688 324.285156 713.671875 C 322.199219 714.039062 319.695312 716.246094 324.703125 720.660156 " transform="matrix(1, 0, 0, -1, -202, 736)"/>
<path fill="none" stroke-width="2" stroke-linecap="butt" stroke-linejoin="round" stroke="rgb(0%, 0%, 0%)" stroke-opacity="1" stroke-miterlimit="10" d="M 329.078125 724.835938 C 331.65625 728.855469 335.523438 728.855469 337.453125 728.183594 C 339.386719 727.515625 339.386719 726.175781 338.957031 725.171875 C 338.527344 724.167969 337.667969 723.496094 336.59375 723.664062 C 335.523438 723.832031 334.234375 724.835938 336.808594 726.84375 " transform="matrix(1, 0, 0, -1, -202, 736)"/>
<path fill="none" stroke-width="2" stroke-linecap="butt" stroke-linejoin="round" stroke="rgb(0%, 0%, 0%)" stroke-opacity="1" stroke-miterlimit="10" d="M 339.449219 728.929688 C 340.644531 730.710938 342.441406 730.710938 343.339844 730.414062 C 344.238281 730.117188 344.238281 729.523438 344.039062 729.078125 C 343.839844 728.632812 343.4375 728.339844 342.941406 728.414062 C 342.441406 728.488281 341.84375 728.929688 343.039062 729.820312 " transform="matrix(1, 0, 0, -1, -202, 736)"/>
<path fill="none" stroke-width="2" stroke-linecap="butt" stroke-linejoin="round" stroke="rgb(0%, 0%, 0%)" stroke-opacity="1" stroke-miterlimit="10" d="M 344.492188 730.847656 C 345.011719 731.652344 345.789062 731.652344 346.179688 731.519531 C 346.570312 731.386719 346.570312 731.117188 346.480469 730.914062 C 346.394531 730.714844 346.222656 730.582031 346.007812 730.613281 C 345.789062 730.648438 345.53125 730.847656 346.050781 731.25 " transform="matrix(1, 0, 0, -1, -202, 736)"/>
<path fill="none" stroke-width="2" stroke-linecap="butt" stroke-linejoin="round" stroke="rgb(0%, 0%, 0%)" stroke-opacity="1" stroke-miterlimit="10" d="M 208 672 C 200.078125 657.804688 204.910156 646.0625 214.511719 640.5625 C 224.109375 635.058594 238.472656 635.796875 258.039062 637.683594 C 277.605469 639.570312 302.375 642.609375 326.132812 654.027344 C 349.886719 665.445312 372.632812 685.242188 383.082031 698.824219 C 393.535156 712.40625 391.691406 719.773438 389.023438 724.699219 C 386.351562 729.625 382.851562 732.109375 376.753906 733.421875 C 370.652344 734.734375 361.949219 734.871094 351.453125 732.109375 " transform="matrix(1, 0, 0, -1, -202, 736)"/>
<path fill="none" stroke-width="2" stroke-linecap="butt" stroke-linejoin="round" stroke="rgb(0%, 0%, 0%)" stroke-opacity="1" stroke-miterlimit="10" d="M 350.613281 731.890625 L 350.105469 731.789062 " transform="matrix(1, 0, 0, -1, -202, 736)"/>
<path fill="none" stroke-width="2" stroke-linecap="butt" stroke-linejoin="round" stroke="rgb(0%, 0%, 0%)" stroke-opacity="1" stroke-miterlimit="10" d="M 349.496094 731.585938 L 348.988281 731.484375 " transform="matrix(1, 0, 0, -1, -202, 736)"/>
<path fill="none" stroke-width="2" stroke-linecap="butt" stroke-linejoin="round" stroke="rgb(0%, 0%, 0%)" stroke-opacity="1" stroke-miterlimit="10" d="M 348.410156 731.316406 L 347.902344 731.214844 " transform="matrix(1, 0, 0, -1, -202, 736)"/>
</svg>
